<svg width="32" height="32" viewBox="0 0 32 32" fill="none" xmlns="http://www.w3.org/2000/svg">
<path opacity="0.4" d="M22.944 0H9.072C3.648 0 0 3.808 0 9.472V22.544C0 28.192 3.648 32 9.072 32H22.944C28.368 32 32 28.192 32 22.544V9.472C32 3.808 28.368 0 22.944 0Z" fill="#88C136"/>
<path d="M20.0211 18.3604L17.6491 15.9898L20.0198 13.6191C20.4758 13.1644 20.4758 12.4244 20.0198 11.9698C19.5638 11.5111 18.8264 11.5124 18.3704 11.9684L15.9984 14.3391L13.6264 11.9658C13.1704 11.5098 12.4318 11.5124 11.9758 11.9658C11.5211 12.4218 11.5211 13.1618 11.9758 13.6164L14.3491 15.9898L11.9811 18.3564C11.5251 18.8124 11.5251 19.5524 11.9811 20.0058C12.2091 20.2351 12.5064 20.3484 12.8051 20.3484C13.1051 20.3484 13.4024 20.2351 13.6304 20.0071L15.9984 17.6391L18.3718 20.0111C18.5998 20.2391 18.8971 20.3524 19.1958 20.3524C19.4944 20.3524 19.7931 20.2378 20.0211 20.0111C20.4771 19.5551 20.4771 18.8164 20.0211 18.3604Z" fill="#88C136"/>
</svg>
