<svg width="28" height="28" viewBox="0 0 28 28" fill="none" xmlns="http://www.w3.org/2000/svg">
<path d="M13.9406 16.9633C9.91558 16.9633 6.51947 17.621 6.51947 20.1593C6.51947 22.6987 9.93752 23.3333 13.9406 23.3333C17.9656 23.3333 21.3617 22.6756 21.3617 20.1373C21.3617 17.5978 17.9436 16.9633 13.9406 16.9633" fill="#C98933"/>
<path opacity="0.4" d="M13.9406 14.5449C16.666 14.5449 18.8514 12.3469 18.8514 9.60579C18.8514 6.86359 16.666 4.66669 13.9406 4.66669C11.2151 4.66669 9.02972 6.86359 9.02972 9.60579C9.02972 12.3469 11.2151 14.5449 13.9406 14.5449" fill="#C98933"/>
<path opacity="0.4" d="M24.6026 10.7558C25.3078 7.98212 23.2404 5.49103 20.608 5.49103C20.3217 5.49103 20.048 5.52255 19.7806 5.57613C19.7451 5.58454 19.7054 5.6024 19.6845 5.63392C19.6605 5.67384 19.6782 5.72742 19.7043 5.7621C20.4951 6.87788 20.9495 8.23637 20.9495 9.69467C20.9495 11.092 20.5327 12.3948 19.8015 13.476C19.7263 13.5873 19.7931 13.7376 19.9258 13.7607C20.1097 13.7933 20.2977 13.8101 20.4899 13.8153C22.4068 13.8657 24.1273 12.6249 24.6026 10.7558" fill="#C98933"/>
<path d="M26.6109 17.2865C26.2599 16.5342 25.4127 16.0183 24.1246 15.7651C23.5166 15.6159 21.8713 15.4058 20.3409 15.4342C20.318 15.4373 20.3054 15.4531 20.3033 15.4636C20.3002 15.4783 20.3065 15.5035 20.3368 15.5193C21.044 15.8712 23.7778 17.402 23.4341 20.6307C23.4195 20.7704 23.5313 20.8912 23.6702 20.8702C24.3429 20.7736 26.0739 20.3995 26.6109 19.2344C26.9075 18.6187 26.9075 17.9032 26.6109 17.2865" fill="#C98933"/>
<path opacity="0.4" d="M8.21897 5.57644C7.95259 5.5218 7.67785 5.49133 7.39162 5.49133C4.75913 5.49133 2.6918 7.98242 3.39797 10.7561C3.87224 12.6252 5.59275 13.8661 7.50966 13.8156C7.70187 13.8104 7.89095 13.7925 8.07377 13.761C8.20643 13.7379 8.27329 13.5876 8.19808 13.4763C7.46683 12.3941 7.05002 11.0923 7.05002 9.69498C7.05002 8.23563 7.50548 6.87714 8.29627 5.7624C8.32134 5.72773 8.34015 5.67415 8.31508 5.63422C8.29418 5.60165 8.25553 5.58484 8.21897 5.57644" fill="#C98933"/>
<path d="M3.87517 15.7648C2.58713 16.018 1.74098 16.5339 1.38998 17.2862C1.09226 17.9029 1.09226 18.6184 1.38998 19.2351C1.92692 20.3992 3.65788 20.7743 4.33063 20.8699C4.46957 20.8909 4.5803 20.7712 4.56567 20.6304C4.22199 17.4028 6.9558 15.872 7.66407 15.52C7.69332 15.5032 7.69958 15.479 7.69645 15.4633C7.69436 15.4528 7.68287 15.437 7.65989 15.4349C6.12845 15.4055 4.48419 15.6156 3.87517 15.7648" fill="#C98933"/>
</svg>
