<svg width="26" height="26" viewBox="0 0 26 26" fill="none" xmlns="http://www.w3.org/2000/svg">
<g filter="url(#filter0_d_688_27610)">
<path opacity="0.4" d="M23 11.9998C23 17.5238 18.523 21.9998 13 21.9998C7.477 21.9998 3 17.5238 3 11.9998C3 6.47776 7.477 1.99976 13 1.99976C18.523 1.99976 23 6.47776 23 11.9998Z" fill="#343434"/>
<path fill-rule="evenodd" clip-rule="evenodd" d="M13.8711 12.6307C13.8711 13.1127 13.4781 13.5057 12.9961 13.5057C12.5141 13.5057 12.1211 13.1127 12.1211 12.6307V8.21069C12.1211 7.72869 12.5141 7.33569 12.9961 7.33569C13.4781 7.33569 13.8711 7.72869 13.8711 8.21069V12.6307ZM12.1261 15.8035C12.1261 15.3215 12.5171 14.9285 12.9961 14.9285C13.4891 14.9285 13.8811 15.3215 13.8811 15.8035C13.8811 16.2855 13.4891 16.6785 13.0061 16.6785C12.5211 16.6785 12.1261 16.2855 12.1261 15.8035Z" fill="white"/>
</g>
<defs>
<filter id="filter0_d_688_27610" x="-2" y="-2" width="30" height="30" filterUnits="userSpaceOnUse" color-interpolation-filters="sRGB">
<feFlood flood-opacity="0" result="BackgroundImageFix"/>
<feColorMatrix in="SourceAlpha" type="matrix" values="0 0 0 0 0 0 0 0 0 0 0 0 0 0 0 0 0 0 127 0" result="hardAlpha"/>
<feOffset dy="1"/>
<feGaussianBlur stdDeviation="1.5"/>
<feComposite in2="hardAlpha" operator="out"/>
<feColorMatrix type="matrix" values="0 0 0 0 0 0 0 0 0 0 0 0 0 0 0 0 0 0 0.5 0"/>
<feBlend mode="normal" in2="BackgroundImageFix" result="effect1_dropShadow_688_27610"/>
<feBlend mode="normal" in="SourceGraphic" in2="effect1_dropShadow_688_27610" result="shape"/>
</filter>
</defs>
</svg>
