<svg width="18" height="18" viewBox="0 0 18 18" fill="none" xmlns="http://www.w3.org/2000/svg">
<g clip-path="url(#clip0_688_17170)">
<path d="M13.9719 16.0663L14.4316 15.6066L14.4316 15.6066L13.9719 16.0663ZM16.0663 13.9719L16.5259 13.5123L16.5259 13.5123L16.0663 13.9719ZM15.0846 12.0711C14.8308 11.8172 14.4192 11.8172 14.1654 12.0711C13.9115 12.3249 13.9115 12.7365 14.1654 12.9903L15.0846 12.0711ZM12.9903 14.1654C12.7365 13.9115 12.3249 13.9115 12.0711 14.1654C11.8172 14.4192 11.8172 14.8308 12.0711 15.0846L12.9903 14.1654ZM2.15 7.875C2.15 4.71317 4.71317 2.15 7.875 2.15V0.85C3.9952 0.85 0.85 3.9952 0.85 7.875H2.15ZM7.875 2.15C11.0368 2.15 13.6 4.71317 13.6 7.875H14.9C14.9 3.9952 11.7548 0.85 7.875 0.85V2.15ZM13.6 7.875C13.6 11.0368 11.0368 13.6 7.875 13.6V14.9C11.7548 14.9 14.9 11.7548 14.9 7.875H13.6ZM7.875 13.6C4.71317 13.6 2.15 11.0368 2.15 7.875H0.85C0.85 11.7548 3.9952 14.9 7.875 14.9V13.6ZM15.6067 15.6066C15.2822 15.9311 14.7561 15.9311 14.4316 15.6066L13.5123 16.5259C14.3445 17.358 15.6937 17.358 16.5259 16.5259L15.6067 15.6066ZM15.6066 14.4316C15.9311 14.756 15.9311 15.2821 15.6067 15.6066L16.5259 16.5259C17.3581 15.6937 17.3581 14.3445 16.5259 13.5123L15.6066 14.4316ZM14.1654 12.9903L15.6067 14.4316L16.5259 13.5123L15.0846 12.0711L14.1654 12.9903ZM14.4316 15.6066L12.9903 14.1654L12.0711 15.0846L13.5123 16.5259L14.4316 15.6066Z" fill="white" fill-opacity="0.6"/>
</g>
<defs>
<clipPath id="clip0_688_17170">
<rect width="18" height="18" fill="white"/>
</clipPath>
</defs>
</svg>
