<svg width="24" height="24" viewBox="0 0 24 24" fill="none" xmlns="http://www.w3.org/2000/svg">
<path d="M22.9983 1.00806C22.415 0.411889 21.5517 0.191389 20.7467 0.424722L1.975 5.84856C1.12566 6.08422 0.523665 6.75739 0.361498 7.61139C0.195831 8.48172 0.774498 9.58772 1.5305 10.0497L7.4 13.6337C8.002 14.0024 8.779 13.9102 9.27716 13.4109L15.9983 6.68972C16.3367 6.33856 16.8967 6.33856 17.235 6.68972C17.5733 7.02689 17.5733 7.57639 17.235 7.92639L10.5022 14.6476C10.0028 15.1469 9.9095 15.9216 10.277 16.5247L13.8633 22.4164C14.2833 23.1152 15.0067 23.5131 15.8 23.5131C15.8933 23.5131 15.9983 23.5131 16.0917 23.5002C17.0017 23.3847 17.725 22.7652 17.9933 21.8902L23.5583 3.25972C23.8033 2.46639 23.5817 1.60306 22.9983 1.00806Z" fill="#C98933"/>
<path opacity="0.4" fill-rule="evenodd" clip-rule="evenodd" d="M1.5124 17.6091C1.2884 17.6091 1.0644 17.5239 0.89407 17.3524C0.552237 17.0106 0.552237 16.4576 0.89407 16.1158L2.48657 14.5221C2.8284 14.1814 3.38257 14.1814 3.7244 14.5221C4.06507 14.8639 4.06507 15.4181 3.7244 15.7599L2.13074 17.3524C1.9604 17.5239 1.7364 17.6091 1.5124 17.6091ZM5.9001 19.0002C5.6761 19.0002 5.4521 18.9151 5.28177 18.7436C4.93993 18.4017 4.93993 17.8487 5.28177 17.5069L6.87427 15.9132C7.2161 15.5726 7.77027 15.5726 8.1121 15.9132C8.45277 16.2551 8.45277 16.8092 8.1121 17.1511L6.51843 18.7436C6.3481 18.9151 6.1241 19.0002 5.9001 19.0002ZM6.1968 23.1629C6.36714 23.3344 6.59114 23.4196 6.81514 23.4196C7.03914 23.4196 7.26314 23.3344 7.43347 23.1629L9.02714 21.5704C9.3678 21.2286 9.3678 20.6744 9.02714 20.3326C8.6853 19.9919 8.13114 19.9919 7.7893 20.3326L6.1968 21.9262C5.85497 22.2681 5.85497 22.8211 6.1968 23.1629Z" fill="#C98933"/>
</svg>
