<svg width="24" height="24" viewBox="0 0 24 24" fill="none" xmlns="http://www.w3.org/2000/svg">
<path opacity="0.4" d="M17.0567 0.33313H6.94291C2.98907 0.33313 0.33374 3.10746 0.33374 7.2363V16.7645C0.33374 20.8921 2.98907 23.6665 6.94291 23.6665H17.0556C21.0094 23.6665 23.6671 20.8921 23.6671 16.7645V7.2363C23.6671 3.10746 21.0106 0.33313 17.0567 0.33313" fill="#C98933"/>
<path fill-rule="evenodd" clip-rule="evenodd" d="M11.1999 11.1233H17.8499C18.3282 11.1233 18.7249 11.52 18.7249 11.9983V14.1566C18.7249 14.6466 18.3282 15.0316 17.8499 15.0316C17.3599 15.0316 16.9749 14.6466 16.9749 14.1566V12.8733H15.4232V14.1566C15.4232 14.6466 15.0265 15.0316 14.5482 15.0316C14.0582 15.0316 13.6732 14.6466 13.6732 14.1566V12.8733H11.1999C10.8265 14.1216 9.68319 15.0316 8.31819 15.0316C6.63819 15.0316 5.27319 13.6783 5.27319 11.9983C5.27319 10.33 6.63819 8.96497 8.31819 8.96497C9.68319 8.96497 10.8265 9.87497 11.1999 11.1233ZM7.02319 11.9983C7.02319 12.71 7.60653 13.2816 8.31819 13.2816C9.01819 13.2816 9.60153 12.71 9.60153 11.9983C9.60153 11.2866 9.01819 10.715 8.31819 10.715C7.60653 10.715 7.02319 11.2866 7.02319 11.9983Z" fill="#C98933"/>
</svg>
