<svg width="28" height="28" viewBox="0 0 28 28" fill="none" xmlns="http://www.w3.org/2000/svg">
<path opacity="0.4" d="M7.82312 15.0389C7.22099 15.0389 6.73355 15.5336 6.73355 16.1447L6.43317 21.4866C6.43317 22.2653 7.05578 22.8958 7.82312 22.8958C8.59047 22.8958 9.21172 22.2653 9.21172 21.4866L8.9127 16.1447C8.9127 15.5336 8.42526 15.0389 7.82312 15.0389" fill="#C98933"/>
<path d="M9.31041 4.28569C9.31041 4.28569 8.99774 3.96421 8.80385 3.82425C8.52258 3.60808 8.17578 3.5 7.83034 3.5C7.44257 3.5 7.08211 3.62194 6.78855 3.85197C6.7353 3.90601 6.50865 4.10971 6.32159 4.29955C5.14736 5.40949 3.22627 8.30697 2.63916 9.82431C2.54631 10.0543 2.3456 10.6363 2.33331 10.9481C2.33331 11.2446 2.39885 11.5301 2.53266 11.8003C2.71972 12.1384 3.01327 12.41 3.36008 12.5583C3.60039 12.6539 4.31994 12.8022 4.3336 12.8022C5.12142 12.9518 6.40215 13.0322 7.81668 13.0322C9.16431 13.0322 10.3918 12.9518 11.1919 12.8299C11.2056 12.816 12.0985 12.6677 12.4057 12.5042C12.9655 12.2063 13.3137 11.6243 13.3137 11.0021V10.9481C13.3001 10.5421 12.9519 9.68851 12.9396 9.68851C12.3525 8.25293 10.5242 5.42334 9.31041 4.28569" fill="#C98933"/>
<path opacity="0.4" d="M20.1771 12.9612C20.7793 12.9612 21.2667 12.4665 21.2667 11.8554L21.5657 6.51347C21.5657 5.73469 20.9445 5.10419 20.1771 5.10419C19.4098 5.10419 18.7872 5.73469 18.7872 6.51347L19.0876 11.8554C19.0876 12.4665 19.575 12.9612 20.1771 12.9612" fill="#C98933"/>
<path d="M25.4673 16.1995C25.2803 15.8614 24.9867 15.5912 24.6399 15.4415C24.3996 15.3459 23.6787 15.1976 23.6664 15.1976C22.8786 15.048 21.5978 14.9676 20.1833 14.9676C18.8357 14.9676 17.6082 15.048 16.8081 15.1699C16.7944 15.1838 15.9015 15.3334 15.5943 15.4956C15.0331 15.7935 14.6863 16.3755 14.6863 16.9991V17.0531C14.6999 17.4591 15.0467 18.3113 15.0604 18.3113C15.6475 19.747 17.4744 22.578 18.6896 23.7143C18.6896 23.7143 19.0022 24.0358 19.1961 24.1743C19.476 24.3919 19.8228 24.5 20.171 24.5C20.5574 24.5 20.9165 24.378 21.2114 24.148C21.2647 24.094 21.4913 23.8903 21.6784 23.7018C22.8513 22.5905 24.7737 19.6929 25.3595 18.1769C25.4537 17.9469 25.6544 17.3635 25.6667 17.0531C25.6667 16.7552 25.6011 16.4697 25.4673 16.1995" fill="#C98933"/>
</svg>
