<svg width="24" height="24" viewBox="0 0 24 24" fill="none" xmlns="http://www.w3.org/2000/svg">
<rect width="24" height="24" rx="12" fill="#0077FF"/>
<path d="M12.5895 16.2C8.0796 16.2 5.50721 13.0468 5.40002 7.8H7.65911C7.73332 11.6511 9.39878 13.2823 10.718 13.6186V7.8H12.8451V11.1213C14.1478 10.9784 15.5165 9.46487 15.9782 7.8H18.1053C17.9314 8.66345 17.5845 9.48099 17.0866 10.2015C16.5886 10.922 15.9503 11.53 15.2114 11.9874C16.0361 12.4053 16.7646 12.9969 17.3487 13.7231C17.9328 14.4492 18.3593 15.2934 18.6 16.2H16.2585C16.0424 15.4126 15.6033 14.7077 14.9961 14.1737C14.3889 13.6397 13.6406 13.3004 12.8451 13.1982V16.2H12.5895Z" fill="white"/>
</svg>
